<?xml version="1.0" encoding="UTF-8" standalone="no"?>
<!-- Created with Inkscape (http://www.inkscape.org/) -->

<svg
   width="240mm"
   height="120mm"
   viewBox="0 0 240 120"
   version="1.1"
   id="svg8"
   inkscape:version="1.3.2 (091e20ef0f, 2023-11-25, custom)"
   sodipodi:docname="faccina-simpatica.svg"
   inkscape:export-filename="faccina-simpatica.pdf"
   inkscape:export-xdpi="108.37334"
   inkscape:export-ydpi="108.37334"
   xmlns:inkscape="http://www.inkscape.org/namespaces/inkscape"
   xmlns:sodipodi="http://sodipodi.sourceforge.net/DTD/sodipodi-0.dtd"
   xmlns="http://www.w3.org/2000/svg"
   xmlns:svg="http://www.w3.org/2000/svg"
   xmlns:rdf="http://www.w3.org/1999/02/22-rdf-syntax-ns#"
   xmlns:cc="http://creativecommons.org/ns#"
   xmlns:dc="http://purl.org/dc/elements/1.1/">
  <defs
     id="defs2" />
  <sodipodi:namedview
     id="base"
     pagecolor="#ffffff"
     bordercolor="#666666"
     borderopacity="1.0"
     inkscape:pageopacity="0.0"
     inkscape:pageshadow="2"
     inkscape:zoom="1.2208791"
     inkscape:cx="452.54276"
     inkscape:cy="255.14402"
     inkscape:document-units="mm"
     inkscape:current-layer="layer1"
     showgrid="false"
     showborder="true"
     width="200mm"
     showguides="true"
     inkscape:guide-bbox="true"
     inkscape:window-width="1920"
     inkscape:window-height="1080"
     inkscape:window-x="0"
     inkscape:window-y="0"
     inkscape:window-maximized="1"
     inkscape:showpageshadow="2"
     inkscape:pagecheckerboard="0"
     inkscape:deskcolor="#d1d1d1">
    <inkscape:grid
       type="xygrid"
       id="grid815"
       units="mm"
       spacingx="10"
       spacingy="10"
       empspacing="4"
       dotted="false"
       originx="0"
       originy="0"
       visible="false" />
  </sodipodi:namedview>
  <metadata
     id="metadata5">
    <rdf:RDF>
      <cc:Work
         rdf:about="">
        <dc:format>image/svg+xml</dc:format>
        <dc:type
           rdf:resource="http://purl.org/dc/dcmitype/StillImage" />
        <dc:title />
      </cc:Work>
    </rdf:RDF>
  </metadata>
  <g
     inkscape:label="Layer 1"
     inkscape:groupmode="layer"
     id="layer1"
     transform="translate(0,-177)">
    <circle
       style="fill:#000000;fill-opacity:1;stroke:#000000;stroke-width:0.421322;stroke-dasharray:none;stroke-opacity:1;marker-start:none;marker-end:none"
       id="path1"
       cx="118.04956"
       cy="237"
       r="45.726952" />
    <circle
       style="fill:#ffffff;fill-opacity:1;stroke:#000000;stroke-width:0.280882;stroke-dasharray:none;stroke-opacity:1;marker-start:none;marker-end:none"
       id="path2"
       cx="101.9646"
       cy="216.76727"
       r="7.4766817" />
    <circle
       style="fill:#ffffff;fill-opacity:1;stroke:#000000;stroke-width:0.280882;stroke-dasharray:none;stroke-opacity:1;marker-start:none;marker-end:none"
       id="circle2"
       cx="133.60506"
       cy="216.76727"
       r="7.4766817" />
    <path
       style="fill:white;stroke:black;stroke-width:0.28088167;stroke-linecap:butt;stroke-linejoin:miter;stroke-opacity:1;fill-opacity:1;marker-end:none;marker-start:none;stroke-dasharray:none"
       d="m 84.952445,248.08266 c 0.07224,0.28895 0.08352,0.60046 0.216715,0.86686 0.16153,0.32306 0.456231,0.56214 0.650147,0.86686 0.312679,0.49136 0.590743,1.00422 0.866862,1.51701 0.229743,0.42667 0.422103,0.87271 0.650145,1.30029 0.220025,0.41255 1.305856,2.39222 1.733725,3.03402 0.400706,0.60106 0.880414,1.14589 1.300292,1.73372 0.568148,0.79541 1.0961,1.63998 1.733724,2.38387 0.199454,0.2327 0.450689,0.41745 0.650145,0.65015 0.235061,0.27424 0.394745,0.61146 0.650148,0.86686 0.255399,0.2554 0.61146,0.39474 0.866859,0.65014 0.255402,0.25541 0.4123,0.59504 0.650148,0.86687 0.269091,0.30753 0.597767,0.55932 0.866862,0.86686 0.237847,0.27182 0.43343,0.57791 0.650145,0.86686 0.216717,0.28895 0.458716,0.56057 0.650147,0.86686 0.171222,0.27396 0.223187,0.62158 0.43343,0.86686 0.235061,0.27424 0.581755,0.4284 0.866862,0.65015 0.365117,0.28398 0.713536,0.58933 1.083577,0.86686 0.416735,0.31255 0.866862,0.57791 1.300292,0.86686 0.21672,0.14448 0.41075,0.33084 0.65015,0.43344 0.27376,0.11732 0.58798,0.11213 0.86686,0.21671 1.70106,0.6379 0.0327,0.22896 1.73372,0.86686 0.55777,0.20916 1.16095,0.26978 1.73373,0.43343 0.43929,0.12552 0.86099,0.30792 1.30029,0.43343 0.28639,0.0818 0.58047,0.13489 0.86686,0.21672 0.21965,0.0628 0.4305,0.15396 0.65015,0.21671 0.28638,0.0818 0.58047,0.13489 0.86686,0.21672 0.21965,0.0628 0.42853,0.16131 0.65014,0.21671 0.44382,0.11096 1.99744,0.38513 2.38387,0.43343 0.36484,0.0456 0.91978,0 1.3003,0 0.86686,0 1.73372,0 2.60058,0 0.79462,0 1.58925,0 2.38387,0 0.21672,0 0.43638,0.0356 0.65015,0 0.22533,-0.0376 0.42481,-0.17916 0.65014,-0.21671 0.21377,-0.0356 0.43764,0.0425 0.65015,0 0.15839,-0.0317 0.27504,-0.18504 0.43343,-0.21672 0.21251,-0.0425 0.43638,0.0356 0.65015,0 0.22533,-0.0376 0.424,-0.1844 0.65014,-0.21671 0.28605,-0.0409 0.58014,0.0358 0.86686,0 0.29555,-0.0369 0.57791,-0.14448 0.86687,-0.21672 0.28895,-0.0722 0.58429,-0.12252 0.86686,-0.21671 0.36905,-0.12302 0.71452,-0.31041 1.08358,-0.43343 0.28256,-0.0942 0.58429,-0.12253 0.86686,-0.21672 0.73338,-0.24446 2.57667,-1.10429 3.03401,-1.30029 2.14691,-0.9201 -0.0285,0.12259 2.38387,-1.08358 0.57791,-0.28895 1.15582,-0.57791 1.73373,-0.86686 0.28895,-0.14447 0.58636,-0.27315 0.86686,-0.43343 0.22614,-0.12922 0.424,-0.30421 0.65014,-0.43343 0.2805,-0.16028 0.60398,-0.24566 0.86687,-0.43343 0.24939,-0.17814 0.40075,-0.47201 0.65014,-0.65015 1.48377,-1.05983 0.28852,0.15688 1.51701,-0.86686 0.23545,-0.19621 0.40075,-0.47201 0.65015,-0.65015 1.48376,-1.05983 0.28851,0.15689 1.517,-0.86686 0.23545,-0.1962 0.4147,-0.45394 0.65015,-0.65014 0.20009,-0.16675 0.43343,-0.28896 0.65015,-0.43344 0.21671,-0.21671 0.41949,-0.44832 0.65014,-0.65014 0.58246,-0.59093 1.32508,-0.98099 1.95044,-1.51701 0.2327,-0.19946 0.43343,-0.43343 0.65015,-0.65014 0.50567,-0.50567 1.01134,-1.01135 1.51701,-1.51701 0.21671,-0.21672 0.43343,-0.43343 0.65014,-0.65015 0.21672,-0.21671 0.46199,-0.40822 0.65015,-0.65015 0.47972,-0.61678 0.81217,-1.34028 1.30029,-1.95043 0.53752,-0.67191 0.42217,-0.19421 0.86686,-1.08358 0.17398,-0.34795 0.25946,-0.73563 0.43343,-1.08358 0.11648,-0.23296 0.29943,-0.4268 0.43343,-0.65014 0.0831,-0.13852 0.12712,-0.29903 0.21672,-0.43343 0.0567,-0.085 0.17103,-0.12535 0.21671,-0.21672 0.10217,-0.20432 0.13188,-0.43805 0.21672,-0.65015 0.06,-0.14997 0.15673,-0.28345 0.21672,-0.43343 0.0848,-0.2121 0.13187,-0.43805 0.21671,-0.65014 0.32061,-0.80151 0.23159,-0.0892 0.43343,-1.3003 0.0238,-0.14251 -0.035,-0.29327 0,-0.43343 0.0392,-0.15671 0.16564,-0.28019 0.21672,-0.43343 0.22192,-0.66577 0.21671,-0.913 0.21671,-1.51701 -0.43343,0.28896 -0.91309,0.51839 -1.30029,0.86687 -0.52201,0.65251 -0.89514,1.20069 -1.51701,1.73372 -0.27423,0.23506 -0.5779,0.43343 -0.86686,0.65015 -0.28895,0.21671 -0.56633,0.44979 -0.86686,0.65014 -0.35047,0.23365 -0.72638,0.4269 -1.08358,0.65015 -0.7987,0.49919 -1.56295,1.05524 -2.38387,1.51701 -0.005,0.003 -2.14946,0.859 -2.16715,0.86686 -0.29522,0.1312 -0.57165,0.30222 -0.86686,0.43343 -0.35549,0.15799 -0.72809,0.27543 -1.08358,0.43343 -0.29521,0.13121 -0.56038,0.33127 -0.86686,0.43343 -0.34944,0.11648 -0.72821,0.1198 -1.08358,0.21672 -0.44078,0.12021 -0.86686,0.28895 -1.30029,0.43343 -1.08358,0.36119 -2.16715,0.72238 -3.25073,1.08357 -0.21672,0.0722 -0.43343,0.14448 -0.65015,0.21672 -0.21671,0.0722 -0.42614,0.17191 -0.65014,0.21671 -0.14168,0.0283 -0.29176,-0.0283 -0.43343,0 -0.22401,0.0448 -0.42482,0.17916 -0.65015,0.21672 -0.21377,0.0356 -0.44177,-0.0595 -0.65015,0 -0.31063,0.0888 -0.56038,0.33127 -0.86686,0.43343 -0.13706,0.0457 -0.29176,-0.0283 -0.43343,0 -0.224,0.0448 -0.42614,0.17192 -0.65015,0.21672 -0.28334,0.0567 -0.59273,-0.0914 -0.86686,0 -0.0969,0.0323 -0.1198,0.18441 -0.21671,0.21671 -0.2056,0.0685 -0.43343,0 -0.65015,0 -0.43343,0 -0.86686,0 -1.30029,0 -0.79463,0 -1.58925,0 -2.38387,0 -0.43343,0 -0.86686,0 -1.30029,0 -0.28896,0 -0.57968,0.0319 -0.86687,0 -0.73218,-0.0813 -1.43348,-0.36673 -2.16715,-0.43343 -0.43165,-0.0392 -0.86686,0 -1.30029,0 -0.86686,0 -1.73373,0 -2.60059,0 -0.43343,0 -0.86836,0.036 -1.30029,0 -0.43789,-0.0365 -0.86269,-0.17693 -1.30029,-0.21671 -0.35971,-0.0327 -0.72418,0.0359 -1.08358,0 -0.36652,-0.0367 -0.72238,-0.14448 -1.08358,-0.21672 -0.36119,-0.0722 -0.72238,-0.14448 -1.08357,-0.21672 -0.3612,-0.0722 -0.71675,-0.18336 -1.08358,-0.21671 -0.43165,-0.0392 -0.86836,0.036 -1.30029,0 -0.60485,-0.0504 -3.25365,-0.61242 -3.46745,-0.65015 -0.50303,-0.0888 -1.01316,-0.13274 -1.51701,-0.21671 -1.67618,-0.27937 -3.337021,-0.67172 -4.984454,-1.08358 -0.577907,-0.14448 -1.155815,-0.28895 -1.733723,-0.43343 -0.288954,-0.0722 -0.571315,-0.17977 -0.866862,-0.21672 -0.286722,-0.0358 -0.580812,0.0409 -0.866861,0 -0.226143,-0.0323 -0.426145,-0.17191 -0.650147,-0.21671 -0.500883,-0.10018 -1.00874,-0.16589 -1.517008,-0.21672 -0.21564,-0.0216 -0.441769,0.0595 -0.650146,0 -0.31063,-0.0888 -0.569922,-0.30617 -0.866862,-0.43343 -0.209967,-0.09 -0.43343,-0.14447 -0.650146,-0.21671 -0.216715,-0.0722 -0.424816,-0.17916 -0.650146,-0.21672 -0.213767,-0.0356 -0.437639,0.0425 -0.650146,0 -0.587001,-0.1174 -0.356123,-0.3437 -0.866862,-0.65014 -1.762142,-1.05729 0.232117,0.44369 -1.083577,-0.43344 -0.085,-0.0567 -0.134987,-0.15541 -0.216716,-0.21671 -0.135453,-0.10159 -0.701193,-0.40165 -0.866861,-0.65015 -0.47746,-0.10913 -0.114555,-0.44582 -0.216716,-0.65014 -0.04569,-0.0914 -0.144477,-0.14448 -0.216715,-0.21672 -0.07224,-0.28895 -0.144478,-0.57791 -0.216717,-0.86686 z"
       id="path3" />
    <path
       style="fill:white;stroke:black;stroke-width:0.28088167;stroke-linecap:butt;stroke-linejoin:miter;stroke-opacity:1;fill-opacity:1;marker-end:none;marker-start:none;stroke-dasharray:none"
       d="m 118.04956,227.27798 c -0.0521,0.5779 0.0575,1.19431 -0.15637,1.73372 -0.56179,1.41711 -3.12025,5.13676 -3.90088,6.28475 -0.98717,1.45172 -2.0786,3.02428 -3.25073,4.33431 -0.61308,0.68521 -1.23247,1.37606 -1.95044,1.95044 -2.03328,1.62662 -3.99141,2.75421 -6.28474,3.90087 -0.34795,0.17398 -0.73564,0.25946 -1.08358,0.43343 -0.0646,0.0323 0.14588,0.0142 0.21671,0 2.92134,-0.58426 -1.15216,0.0719 1.73373,-0.21671 0.43722,-0.0437 0.8624,-0.18023 1.30029,-0.21672 1.4423,-0.12019 2.64348,0.19758 4.11759,0.43343 7.52926,1.20468 -2.0349,-0.22727 4.98446,0.65015 0.94281,0.11785 1.8782,0.28896 2.8173,0.43343 1.15581,0.14448 2.3111,0.29327 3.46744,0.43343 3.10267,0.37608 4.24377,0.56088 7.36833,0.65015 1.29976,0.0371 2.60328,0.0837 3.90087,0 0.94818,-0.0612 1.88561,-0.24709 2.81731,-0.43343 0.51569,-0.10314 1.02458,-0.24878 1.517,-0.43343 0.0957,-0.0359 0.21672,-0.11456 0.21672,-0.21672 0,-0.0722 -0.16564,0.0511 -0.21672,0 -0.11421,-0.11422 -0.10249,-0.31921 -0.21671,-0.43343 -0.18418,-0.18417 -0.46597,-0.24926 -0.65015,-0.43343 -0.18417,-0.18417 -0.28587,-0.43552 -0.43343,-0.65015 -0.64708,-0.94121 -1.23177,-1.92954 -1.95044,-2.8173 -0.51423,-0.63523 -1.17255,-1.13954 -1.73372,-1.73372 -0.66731,-0.70656 -1.28503,-1.45881 -1.95044,-2.16715 -1.57419,-1.67576 -3.19196,-3.3102 -4.76774,-4.98446 -0.73601,-0.78202 -1.40779,-1.6245 -2.16715,-2.38387 -0.75937,-0.75936 -1.66136,-1.37265 -2.38387,-2.16715 -3.30859,-3.63824 0.49815,-0.56773 -2.8173,-3.03402"
       id="path4" />
  </g>
</svg>
