<?xml version="1.0" encoding="UTF-8" standalone="no"?>
<!-- Created with Inkscape (http://www.inkscape.org/) -->

<svg
   width="240mm"
   height="120mm"
   viewBox="0 0 240 120"
   version="1.1"
   id="svg8"
   inkscape:version="1.3.2 (091e20ef0f, 2023-11-25, custom)"
   sodipodi:docname="faccia.svg"
   inkscape:export-filename="faccia.pdf"
   inkscape:export-xdpi="96"
   inkscape:export-ydpi="96"
   xmlns:inkscape="http://www.inkscape.org/namespaces/inkscape"
   xmlns:sodipodi="http://sodipodi.sourceforge.net/DTD/sodipodi-0.dtd"
   xmlns="http://www.w3.org/2000/svg"
   xmlns:svg="http://www.w3.org/2000/svg"
   xmlns:rdf="http://www.w3.org/1999/02/22-rdf-syntax-ns#"
   xmlns:cc="http://creativecommons.org/ns#"
   xmlns:dc="http://purl.org/dc/elements/1.1/">
  <defs
     id="defs2">
    <marker
       style="overflow:visible"
       id="ArrowWide"
       refX="0"
       refY="0"
       orient="auto-start-reverse"
       inkscape:stockid="Wide arrow"
       markerWidth="1"
       markerHeight="1"
       viewBox="0 0 1 1"
       inkscape:isstock="true"
       inkscape:collect="always"
       preserveAspectRatio="xMidYMid">
      <path
         style="fill:none;stroke:context-stroke;stroke-width:1;stroke-linecap:butt"
         d="M 3,-3 0,0 3,3"
         transform="rotate(180,0.125,0)"
         sodipodi:nodetypes="ccc"
         id="path3" />
    </marker>
    <marker
       style="overflow:visible"
       id="ArrowTriangleStylized"
       refX="0"
       refY="0"
       orient="auto-start-reverse"
       inkscape:stockid="Stylized triangle arrow"
       markerWidth="1"
       markerHeight="1"
       viewBox="0 0 1 1"
       inkscape:isstock="true"
       inkscape:collect="always"
       preserveAspectRatio="xMidYMid">
      <path
         transform="scale(0.5)"
         style="fill:context-stroke;fill-rule:evenodd;stroke:context-stroke;stroke-width:1pt"
         d="m 6,0 c -3,1 -7,3 -9,5 0,0 0,-4 2,-5 -2,-1 -2,-5 -2,-5 2,2 6,4 9,5 z"
         id="path4" />
    </marker>
    <marker
       id="marker-arrow-1.0616"
       orient="auto-start-reverse"
       refY="0"
       refX="0"
       markerHeight="1.690"
       markerWidth="0.911">
      <g
         transform="scale(1.343431298668676)"
         id="g1">
        <path
           d="M -1.55415,2.0722 C -1.42464,1.29512 0,0.1295 0.38852,0 0,-0.1295 -1.42464,-1.29512 -1.55415,-2.0722"
           style="fill:none;stroke:#000000;stroke-width:0.6;stroke-linecap:round;stroke-linejoin:round;stroke-miterlimit:10;stroke-dasharray:none;stroke-opacity:1"
           inkscape:connector-curvature="0"
           id="path1-6" />
      </g>
    </marker>
  </defs>
  <sodipodi:namedview
     id="base"
     pagecolor="#ffffff"
     bordercolor="#666666"
     borderopacity="1.0"
     inkscape:pageopacity="0.0"
     inkscape:pageshadow="2"
     inkscape:zoom="1.1843601"
     inkscape:cx="425.12407"
     inkscape:cy="218.26132"
     inkscape:document-units="mm"
     inkscape:current-layer="layer1"
     showgrid="false"
     showborder="true"
     width="200mm"
     showguides="true"
     inkscape:guide-bbox="true"
     inkscape:window-width="1920"
     inkscape:window-height="1080"
     inkscape:window-x="0"
     inkscape:window-y="0"
     inkscape:window-maximized="1"
     inkscape:showpageshadow="2"
     inkscape:pagecheckerboard="0"
     inkscape:deskcolor="#d1d1d1">
    <inkscape:grid
       type="xygrid"
       id="grid815"
       units="mm"
       spacingx="10"
       spacingy="10"
       empspacing="4"
       dotted="false"
       originx="0"
       originy="0"
       visible="false" />
  </sodipodi:namedview>
  <metadata
     id="metadata5">
    <rdf:RDF>
      <cc:Work
         rdf:about="">
        <dc:format>image/svg+xml</dc:format>
        <dc:type
           rdf:resource="http://purl.org/dc/dcmitype/StillImage" />
        <dc:title />
      </cc:Work>
    </rdf:RDF>
  </metadata>
  <g
     inkscape:label="Layer 1"
     inkscape:groupmode="layer"
     id="layer1"
     transform="translate(0,-177)">
    <path
       id="path1"
       style="fill:white;fill-opacity:1;stroke:black;stroke-width:0.28088167;stroke-dasharray:none;stroke-opacity:1;marker-start:;marker-end:url(#ArrowTriangleStylized)"
       d="M 97.40129 196.88251 A 35.743629 35.743629 0 0 0 61.657735 232.62606 A 35.743629 35.743629 0 0 0 93.795825 268.11175 L 93.795825 256.03549 A 8.2157612 8.2157612 0 0 1 89.185771 248.66746 A 8.2157612 8.2157612 0 0 1 97.401807 240.45142 A 8.2157612 8.2157612 0 0 1 105.61733 248.66746 A 8.2157612 8.2157612 0 0 1 101.00779 256.03549 L 101.00779 268.11175 A 35.743629 35.743629 0 0 0 133.0911 233.33455 L 125.98714 233.33455 A 5.5980678 5.5980678 0 0 1 120.96678 236.47596 A 5.5980678 5.5980678 0 0 1 115.36867 230.87733 A 5.5980678 5.5980678 0 0 1 120.96678 225.27974 A 5.5980678 5.5980678 0 0 1 125.98714 228.42063 L 132.84409 228.42063 A 35.743629 35.743629 0 0 0 97.40129 196.88251 z " />
    <path
       style="fill:none;stroke:#000000;stroke-width:0.264583px;stroke-linecap:butt;stroke-linejoin:miter;stroke-opacity:1;marker-start:url(#ArrowWide)"
       d="m 108.79468,205.8183 c 0,0 11.61668,3.57437 14.74425,14.07406"
       id="path2" />
    <text
       style="font-size:2.64583px;font-family:monospace;-inkscape-font-specification:'monospace, Normal';fill:#000000;fill-opacity:1;stroke:none;stroke-width:0.264583"
       xml:space="preserve"
       id="text1"
       y="216.01106"
       x="102.59216"><tspan
         sodipodi:role="line"
         id="tspan1"
         x="102.59216"
         y="216.01106"
         style="stroke-width:0.264583">$\frac{1}{2\pi i}\int x dx$</tspan></text>
  </g>
</svg>
