<?xml version="1.0" encoding="UTF-8" standalone="no"?>
<!-- Created with Inkscape (http://www.inkscape.org/) -->

<svg
   width="240mm"
   height="120mm"
   viewBox="0 0 240 120"
   version="1.1"
   id="svg8"
   inkscape:version="1.3.2 (091e20ef0f, 2023-11-25, custom)"
   sodipodi:docname="faccia-brutta.svg"
   xmlns:inkscape="http://www.inkscape.org/namespaces/inkscape"
   xmlns:sodipodi="http://sodipodi.sourceforge.net/DTD/sodipodi-0.dtd"
   xmlns="http://www.w3.org/2000/svg"
   xmlns:svg="http://www.w3.org/2000/svg"
   xmlns:rdf="http://www.w3.org/1999/02/22-rdf-syntax-ns#"
   xmlns:cc="http://creativecommons.org/ns#"
   xmlns:dc="http://purl.org/dc/elements/1.1/">
  <defs
     id="defs2" />
  <sodipodi:namedview
     id="base"
     pagecolor="#ffffff"
     bordercolor="#666666"
     borderopacity="1.0"
     inkscape:pageopacity="0.0"
     inkscape:pageshadow="2"
     inkscape:zoom="0.99437388"
     inkscape:cx="284.09837"
     inkscape:cy="182.52692"
     inkscape:document-units="mm"
     inkscape:current-layer="layer1"
     showgrid="false"
     showborder="true"
     width="200mm"
     showguides="true"
     inkscape:guide-bbox="true"
     inkscape:window-width="1920"
     inkscape:window-height="1080"
     inkscape:window-x="0"
     inkscape:window-y="0"
     inkscape:window-maximized="1"
     inkscape:showpageshadow="2"
     inkscape:pagecheckerboard="0"
     inkscape:deskcolor="#d1d1d1">
    <inkscape:grid
       type="xygrid"
       id="grid815"
       units="mm"
       spacingx="10"
       spacingy="10"
       empspacing="4"
       dotted="false"
       originx="0"
       originy="0"
       visible="false" />
  </sodipodi:namedview>
  <metadata
     id="metadata5">
    <rdf:RDF>
      <cc:Work
         rdf:about="">
        <dc:format>image/svg+xml</dc:format>
        <dc:type
           rdf:resource="http://purl.org/dc/dcmitype/StillImage" />
        <dc:title />
      </cc:Work>
    </rdf:RDF>
  </metadata>
  <g
     inkscape:label="Layer 1"
     inkscape:groupmode="layer"
     id="layer1"
     transform="translate(0,-177)">
    <path
       style="fill:none;stroke:#000000;stroke-width:0.264583px;stroke-linecap:butt;stroke-linejoin:miter;stroke-opacity:1"
       d="m 78.227618,264.80651 c 1.281739,-1.49521 1.786805,-3.47696 2.926884,-5.05553 1.727687,-2.39218 6.423218,-6.3546 7.982407,-7.45025 1.201219,-0.8441 2.56856,-1.49992 3.991206,-1.86256 6.798087,-1.73284 10.872085,-2.27717 17.561305,-0.53216 1.53522,0.40049 2.89304,1.31862 4.25728,2.12864 4.34013,2.57696 6.1837,4.59199 10.11106,8.24849 0.64261,0.5983 1.27519,1.20994 1.86256,1.86256 1.66576,1.85085 5.43771,6.48777 6.65201,8.2485 1.89894,2.75347 1.23617,2.65042 2.6608,5.3216 0.30098,0.56433 0.73526,1.04805 1.06432,1.59648 0.20408,0.34013 0.32809,0.7242 0.53216,1.06433 0.0645,0.10755 0.14065,0.26608 0.26608,0.26608 0.0887,0 -0.0627,-0.20337 0,-0.26608 0.0627,-0.0627 0.17739,0 0.26608,0"
       id="path1" />
    <path
       style="fill:none;stroke:#000000;stroke-width:0.264583px;stroke-linecap:butt;stroke-linejoin:miter;stroke-opacity:1"
       d="m 85.677866,215.04949 c -1.867471,1.70424 -3.362926,3.34065 -3.991205,5.85376 -0.163351,0.65341 -0.453708,2.505 -0.266081,3.19297 0.136078,0.49894 0.475171,0.92656 0.798243,1.3304 0.391781,0.48973 0.801293,0.9937 1.330401,1.3304 0.473247,0.30116 1.055302,0.38457 1.59648,0.53216 1.054735,0.28766 1.606071,0.4219 2.660804,0 1.340003,-0.536 2.087324,-1.48541 2.926884,-2.6608 0.415626,-0.58188 0.813245,-1.19302 1.064321,-1.86256 0.85372,-2.27659 0.669364,-5.58971 0.532162,-7.71633 -0.203687,-3.15713 -1.627929,-6.68739 -3.725125,-9.04673 -0.589248,-0.66291 -1.380371,-1.12031 -2.128644,-1.59649 -0.236622,-0.15058 -0.527651,-0.33987 -0.79824,-0.26608 -2.230572,0.60834 -3.511026,2.44671 -5.055526,3.99121"
       id="path2" />
    <path
       style="fill:black;stroke:black;stroke-width:0.14044083;stroke-linecap:butt;stroke-linejoin:miter;stroke-opacity:1;fill-opacity:0.12;marker-end:none;marker-start:none;stroke-dasharray:none"
       d="m 129.58112,212.1226 c -0.35477,0.0887 -0.75671,0.0683 -1.06432,0.26608 -1.84692,1.18731 -3.19955,2.54412 -4.52337,4.25729 -1.51253,1.9574 -3.16049,3.90156 -3.72512,6.38593 -0.5417,2.38349 -0.23884,5.48901 0.53216,7.71633 0.31382,0.90658 0.9866,1.65416 1.59648,2.39472 0.6379,0.77459 1.30049,1.56201 2.12864,2.12864 0.88447,0.60517 1.91855,0.9674 2.92689,1.3304 3.16965,1.14108 5.81787,1.69162 9.31281,1.06432 2.77589,-0.49823 6.82834,-2.73951 8.78065,-4.78944 0.68388,-0.71807 0.93978,-1.74936 1.3304,-2.6608 0.72278,-1.68648 1.42763,-3.73028 1.59648,-5.58769 0.1924,-2.11637 0.0452,-3.83292 -0.53216,-5.85377 -0.28519,-0.99819 -0.60005,-1.99835 -1.06432,-2.92688 -0.42904,-0.85809 -1.04632,-1.60878 -1.59648,-2.39472 -0.81237,-1.16053 -2.19168,-3.49057 -3.72512,-4.25729 -0.48255,-0.24127 -1.06569,-0.16957 -1.59649,-0.26608 -0.44495,-0.0809 -0.88039,-0.31108 -1.3304,-0.26608 -0.90552,0.0906 -2.29711,1.17664 -2.92688,1.59648"
       id="path3" />
    <path
       style="fill:none;stroke:#000000;stroke-width:0.264583px;stroke-linecap:butt;stroke-linejoin:miter;stroke-opacity:1"
       d="m 80.62234,208.1314 c 0.620853,0.53216 2.274583,0.89016 1.862564,1.59648 -1.236068,2.11897 -3.801312,3.10815 -5.587688,4.78945 -2.470079,2.32478 -4.478975,4.74224 -6.119847,7.71633 -0.652608,1.18285 -1.232231,2.42422 -1.596483,3.72512 -0.657349,2.34767 -0.39902,3.63657 1.064321,5.58769 0.23799,0.31732 0.677831,0.44297 1.064321,0.53216 3.292142,0.75972 6.660616,-0.26824 9.844974,-1.06432 1.118587,-0.27965 2.169988,-0.79846 3.192962,-1.33041 1.201156,-0.6246 2.349932,-1.35226 3.459044,-2.12864 1.427437,-0.9992 2.153242,-1.85617 3.192965,-3.19296 0.196331,-0.25243 0.436777,-0.49301 0.532162,-0.79824 0.878525,-2.81129 0.941284,-3.79112 0.79824,-6.65201 -0.03571,-0.71418 -0.110961,-1.4306 -0.266081,-2.12864 -0.200875,-0.90394 -0.49234,-1.78681 -0.79824,-2.66081 -0.315571,-0.90162 -0.619414,-1.81547 -1.064321,-2.6608 -0.446823,-0.84896 -1.034783,-1.61698 -1.596483,-2.39472 -0.637619,-0.88286 -2.878354,-3.73708 -3.725124,-4.52337 -0.559099,-0.51916 -1.227733,-0.90718 -1.862563,-1.3304 -0.430308,-0.28687 -0.831459,-0.66217 -1.330402,-0.79824 -0.513408,-0.14002 -1.064321,0 -1.596483,0 -0.177384,0 -0.367461,-0.0659 -0.532159,0 -1.622822,0.64913 -0.05042,0.53216 -1.43084,0.53216"
       id="path4" />
  </g>
</svg>
